<?xml version="1.0" encoding="utf-8"?>
<!-- Generator: Adobe Illustrator 27.5.0, SVG Export Plug-In . SVG Version: 6.00 Build 0)  -->
<svg version="1.1" xmlns="http://www.w3.org/2000/svg" xmlns:xlink="http://www.w3.org/1999/xlink" x="0px" y="0px"
	 viewBox="0 0 2200 2200" style="enable-background:new 0 0 2200 2200;" xml:space="preserve">
<g id="Background">
	<rect style="fill:#FFFFFF;" width="2200" height="2200"/>
</g>
<g id="Objects">
	<path d="M1753.982,340.456c-0.933-13.7-8.486-27.502-23.732-32.704c-14.435-4.926-31.1-0.788-40.391,10.23
		c-10.318,12.237-11.663,30.394-3.482,43.834c0.97,1.594,2.085,3.107,3.319,4.531c-36.14,46.768-74.73,91.876-117.855,132.315
		c-24.936,23.382-51.565,45.197-80.702,63.17c-25.58,15.779-53.647,29.119-83.505,34.077c-25.944,4.308-52.281,1.849-76.384-8.875
		c-23.632-10.515-44.297-26.76-62.519-44.925c-44.152-44.012-77.059-98.844-104.799-154.261
		c-25.536-51.013-46.973-103.737-63.11-158.403c17.804-6.067,27.34-22.003,28.285-38.78c0.054-0.601,0.077-1.139,0.067-1.551
		c0.015-0.596-0.015-1.34-0.106-2.154c-1.085-15.934-9.869-31.985-27.6-38.036c-16.788-5.729-36.171-0.917-46.976,11.898
		c-12,14.232-13.564,35.349-4.05,50.98c5.847,9.606,16.094,16.77,27.777,19.165c-0.89,5.854-1.893,11.691-3.003,17.509
		c-1.523,7.987-2.14,10.851-4.054,19.07c-1.787,7.674-3.721,15.313-5.78,22.918c-8.542,31.557-19.141,62.592-31.599,92.816
		c-25.518,61.91-57.981,123.052-103.056,173.067c-18.859,20.926-40.291,39.96-65.404,53.047
		c-24.036,12.526-50.282,17.661-77.263,14.287c-30.644-3.832-59.309-17.562-85.02-34.147c-29.827-19.24-56.461-43.048-81.107-68.488
		c-43.503-44.902-81.642-95.227-115.616-147.766c5.135-6.293,7.963-14.219,8.423-22.379c0.047-0.516,0.066-0.979,0.057-1.334
		c0.013-0.513-0.013-1.153-0.091-1.852c-0.933-13.7-8.486-27.502-23.731-32.704c-14.435-4.926-31.1-0.788-40.391,10.23
		c-10.318,12.237-11.663,30.394-3.482,43.834c6.959,11.434,21.169,18.837,35.867,16.917
		c51.795,141.941,103.59,283.883,155.385,425.824c15.728,43.102,31.456,86.203,47.184,129.305c1.238,3.392,3.737,8.874,8.298,6.754
		c80.812-37.562,165.676-67.046,253.599-82.467c77.271-13.553,156.485-16.08,234.25-5.15c42.407,5.96,84.14,15.885,124.736,29.497
		c10.932,3.666,12.949-25.311,3.907-28.343c-73.522-24.651-150.588-37.462-228.151-37.431
		c-83.106,0.033-165.617,14.461-244.992,38.633c-48.646,14.815-96.072,33.383-142.261,54.619
		C640.134,767.084,585.345,616.937,530.556,466.79c-5.499-15.069-10.997-30.137-16.496-45.206
		c25.427,37.247,53.036,73.034,83.222,106.415c25.097,27.753,52.24,53.96,82.314,76.306c26.309,19.549,55.277,36.115,87.139,44.547
		c28.268,7.481,57.347,6.924,84.878-3.267c26.866-9.945,50.298-27.709,70.736-47.466c48.982-47.351,84.192-109.185,111.852-170.866
		c25.032-55.821,45.493-115.042,56.083-175.536c14.027,46.342,32.213,91.616,52.768,135.302
		c27.651,58.769,60.653,116.924,104.14,165.537c35.627,39.827,81.862,75.627,137.826,74.821
		c64.815-0.933,123.468-41.878,170.814-82.333c38.886-33.227,73.968-70.781,106.713-110.158
		c-27.823,59.902-54.814,120.185-81.53,180.596c-37.086,83.861-74.09,167.766-113.686,250.482
		c-23.744,49.599-48.388,98.762-73.925,147.462c-81.673-41.844-171.387-67.59-262.94-74.566
		c-88.859-6.77-178.719,4.239-263.455,31.762c-46.722,15.176-91.683,35.52-133.954,60.542c-8.537,5.054-5.198,33.732,3.907,28.343
		c74.89-44.33,158.149-73.694,244.276-86.174c88.158-12.775,178.659-8.046,264.998,13.884
		c51.119,12.984,100.579,32.3,147.339,56.644c3.23,1.682,5.778-1.174,7.149-3.779c45.531-86.516,87.936-174.59,128.268-263.639
		c37.837-83.54,74.182-167.745,111.995-251.295c22.296-49.264,45.104-98.294,68.583-147.005c4.753,1.07,9.796,1.227,14.86,0.245
		c18.699-3.627,28.685-18.743,29.586-34.744c0.047-0.516,0.066-0.979,0.057-1.334
		C1754.085,341.795,1754.06,341.155,1753.982,340.456z"/>
	<g>
		<g>
			<path style="fill:#E59E2C;" d="M1483.341,1931.466c-16.814,34.146-34.727,69.433-54.175,106.359
				c-218.952-114.428-469.363-97.905-660.516,15.642l-43.128-111.628C951.163,1836.693,1240.045,1816.27,1483.341,1931.466z"/>
		</g>
		<g>
			<path style="fill:#F2B733;" d="M1742.071,1337.125c-103.185,213.112-163.241,370.192-258.719,564.011h-0.01
				c-243.296-115.196-532.178-94.773-757.82,10.372c-71.622-196.267-143.233-392.534-214.854-588.801
				c69.319,116.545,219.781,320.767,354.664,291.766c134.873-29.001,243.596-288.965,256.282-423.143
				c31.854,123.639,137.984,365.887,265.026,395.739C1513.67,1616.931,1661.249,1444.635,1742.071,1337.125z"/>
		</g>
		<path d="M1758.118,1291.621c-0.933-13.7-8.486-27.502-23.732-32.704c-14.435-4.926-31.1-0.788-40.391,10.23
			c-10.318,12.237-11.662,30.394-3.482,43.834c0.97,1.594,2.085,3.107,3.319,4.531c-36.14,46.768-74.73,91.876-117.855,132.315
			c-24.936,23.382-51.565,45.197-80.702,63.17c-25.58,15.779-53.647,29.119-83.505,34.077c-25.944,4.308-52.281,1.849-76.384-8.875
			c-23.632-10.516-44.297-26.76-62.519-44.925c-44.152-44.012-77.059-98.844-104.799-154.261
			c-25.536-51.013-46.973-103.737-63.11-158.403c17.804-6.067,27.34-22.003,28.285-38.781c0.054-0.6,0.077-1.139,0.067-1.551
			c0.015-0.596-0.015-1.34-0.106-2.154c-1.085-15.934-9.869-31.985-27.6-38.036c-16.788-5.729-36.171-0.917-46.976,11.898
			c-12,14.232-13.564,35.349-4.05,50.98c5.847,9.606,16.094,16.77,27.777,19.165c-0.89,5.854-1.893,11.691-3.003,17.509
			c-1.523,7.987-2.14,10.851-4.054,19.07c-1.787,7.674-3.721,15.313-5.78,22.918c-8.542,31.557-19.141,62.592-31.599,92.816
			c-25.518,61.91-57.981,123.052-103.056,173.067c-18.859,20.926-40.291,39.96-65.404,53.047
			c-24.036,12.526-50.282,17.661-77.263,14.287c-30.644-3.832-59.309-17.562-85.02-34.147
			c-29.827-19.24-56.461-43.048-81.108-68.488c-43.503-44.902-81.642-95.227-115.616-147.766c5.135-6.293,7.963-14.219,8.423-22.379
			c0.047-0.516,0.066-0.979,0.057-1.334c0.013-0.512-0.013-1.152-0.091-1.852c-0.933-13.7-8.486-27.502-23.731-32.704
			c-14.435-4.926-31.1-0.788-40.391,10.23c-10.318,12.237-11.663,30.394-3.482,43.834c6.959,11.434,21.169,18.837,35.867,16.917
			c51.795,141.941,103.59,283.883,155.385,425.824c15.728,43.102,31.456,86.203,47.184,129.305c1.238,3.392,3.737,8.874,8.298,6.754
			c80.812-37.562,165.676-67.046,253.599-82.467c77.271-13.553,156.485-16.08,234.25-5.15c42.407,5.96,84.14,15.885,124.736,29.497
			c10.932,3.666,12.949-25.311,3.907-28.343c-73.522-24.651-150.588-37.462-228.151-37.431
			c-83.106,0.033-165.617,14.461-244.992,38.633c-48.646,14.815-96.072,33.383-142.261,54.619
			c-54.789-150.147-109.579-300.294-164.368-450.442c-5.499-15.069-10.997-30.137-16.496-45.206
			c25.427,37.246,53.036,73.034,83.222,106.415c25.097,27.753,52.24,53.96,82.314,76.306c26.309,19.549,55.277,36.115,87.139,44.547
			c28.268,7.481,57.347,6.924,84.878-3.267c26.866-9.945,50.298-27.709,70.736-47.466c48.982-47.351,84.192-109.185,111.852-170.866
			c25.032-55.821,45.493-115.042,56.083-175.536c14.027,46.342,32.213,91.616,52.768,135.302
			c27.651,58.769,60.653,116.924,104.14,165.537c35.627,39.827,81.862,75.626,137.826,74.821
			c64.815-0.933,123.468-41.877,170.814-82.333c38.886-33.227,73.968-70.781,106.713-110.158
			c-27.823,59.902-54.814,120.185-81.53,180.596c-37.086,83.861-74.09,167.766-113.686,250.482
			c-23.744,49.6-48.388,98.762-73.925,147.462c-81.673-41.844-171.387-67.59-262.94-74.566
			c-88.859-6.77-178.719,4.239-263.455,31.762c-46.722,15.176-91.683,35.52-133.954,60.542c-8.537,5.054-5.198,33.733,3.907,28.343
			c74.89-44.33,158.149-73.694,244.276-86.175c88.158-12.775,178.659-8.046,264.998,13.884
			c51.119,12.984,100.579,32.3,147.339,56.644c3.23,1.682,5.778-1.174,7.149-3.78c45.531-86.516,87.936-174.59,128.269-263.639
			c37.837-83.54,74.182-167.745,111.995-251.295c22.296-49.264,45.104-98.294,68.583-147.005c4.753,1.07,9.796,1.227,14.86,0.245
			c18.699-3.627,28.685-18.743,29.586-34.744c0.047-0.516,0.066-0.979,0.057-1.334
			C1758.221,1292.961,1758.195,1292.321,1758.118,1291.621z"/>
	</g>
</g>
</svg>
