<?xml version="1.0" encoding="UTF-8" standalone="no"?>
<svg
   width="45"
   height="45"
   version="1.1"
   id="svg4"
   sodipodi:docname="KingBlack.svg"
   inkscape:version="1.4.2 (f4327f4, 2025-05-13)"
   xmlns:inkscape="http://www.inkscape.org/namespaces/inkscape"
   xmlns:sodipodi="http://sodipodi.sourceforge.net/DTD/sodipodi-0.dtd"
   xmlns="http://www.w3.org/2000/svg"
   xmlns:svg="http://www.w3.org/2000/svg">
  <defs
     id="defs4" />
  <sodipodi:namedview
     id="namedview4"
     pagecolor="#ffffff"
     bordercolor="#000000"
     borderopacity="0.25"
     inkscape:showpageshadow="2"
     inkscape:pageopacity="0.0"
     inkscape:pagecheckerboard="0"
     inkscape:deskcolor="#d1d1d1"
     inkscape:zoom="11.313709"
     inkscape:cx="14.451495"
     inkscape:cy="20.240932"
     inkscape:window-width="1280"
     inkscape:window-height="730"
     inkscape:window-x="-6"
     inkscape:window-y="-6"
     inkscape:window-maximized="1"
     inkscape:current-layer="svg4" />
  <g
     fill="none"
     fill-rule="evenodd"
     stroke="#000000"
     stroke-linecap="round"
     stroke-linejoin="round"
     stroke-width="1.5"
     id="g4"
     style="display:inline;stroke:#ffffff;stroke-opacity:1;stroke-width:0.9;stroke-dasharray:none">
    <path
       stroke-linejoin="miter"
       d="M 22.5,11.63 V 6 M 20,8 h 5"
       id="path1"
       style="display:inline;stroke:#ffffff;stroke-opacity:1;stroke-width:0.9;stroke-dasharray:none" />
    <path
       fill="#ffffff"
       stroke-linecap="butt"
       stroke-linejoin="miter"
       d="m 22.5,25 c 0,0 4.5,-7.5 3,-10.5 0,0 -1,-2.5 -3,-2.5 -2,0 -3,2.5 -3,2.5 -1.5,3 3,10.5 3,10.5"
       id="path2"
       style="stroke:#ffffff;stroke-opacity:1;stroke-width:0.9;stroke-dasharray:none" />
    <path
       fill="#ffffff"
       d="m 12.5,37 c 5.5,3.5 14.5,3.5 20,0 v -7 c 0,0 9,-4.5 6,-10.5 -4,-6.5 -13.5,-3.5 -16,4 V 27 23.5 C 20,16 10.5,13 6.5,19.5 c -3,6 6,10.5 6,10.5 v 7"
       id="path3"
       style="mix-blend-mode:normal;stroke:#ffffff;stroke-opacity:1;stroke-width:0.9;stroke-dasharray:none" />
    <path
       d="m 12.5,30 c 5.5,-3 14.5,-3 20,0 m -20,3.5 c 5.5,-3 14.5,-3 20,0 m -20,3.5 c 5.5,-3 14.5,-3 20,0"
       id="path4"
       style="display:inline;stroke:#ffffff;stroke-opacity:1;stroke-dasharray:none;stroke-linecap:round;stroke-width:0.9"
       inkscape:highlight-color="#ffffff" />
  </g>
  <path
     style="fill:#000000;stroke:#000000;stroke-width:0.0795495;stroke-linecap:round;stroke-dasharray:none;stroke-opacity:1"
     d="m 11.25836,28.644118 c -3.2085716,-2.14215 -4.8502048,-4.402977 -4.8502048,-6.679614 0,-1.382084 0.4587249,-2.362364 1.677222,-3.58417 0.6959192,-0.697809 0.9720774,-0.907587 1.5931468,-1.210199 1.179906,-0.574901 1.695206,-0.684417 3.181981,-0.67626 1.11807,0.0061 1.383151,0.03712 2.077126,0.242793 2.858423,0.847153 5.190562,2.866499 6.548014,5.669778 l 0.470811,0.972272 0.02612,1.922684 0.02612,1.922684 -0.265166,0.03933 c -0.14584,0.02163 -0.703529,0.06145 -1.239308,0.08849 -2.377245,0.11997 -5.303532,0.818075 -7.280305,1.736815 -0.407792,0.189528 -0.750896,0.344597 -0.762455,0.344597 -0.01156,0 -0.552956,-0.355141 -1.203105,-0.789202 z"
     id="path45" />
  <path
     style="fill:#000000;stroke:#000000;stroke-width:0.0795495;stroke-linecap:round;stroke-dasharray:none;stroke-opacity:1"
     d="m 22.311357,21.726502 c -0.32196,-0.637619 -1.090294,-1.775383 -1.622875,-2.403185 -0.455201,-0.536588 -0.526287,-0.678024 -0.729541,-1.451538 -0.161936,-0.616274 -0.228447,-1.1066 -0.236768,-1.745474 -0.01127,-0.865509 -0.0026,-0.906594 0.33493,-1.59099 0.660062,-1.338289 1.788805,-2.181857 2.698896,-2.017024 0.818747,0.148289 1.668303,0.938636 2.195316,2.042315 0.307098,0.64313 0.327722,0.739299 0.327275,1.526073 -3.34e-4,0.587079 -0.06473,1.102007 -0.214066,1.711646 -0.197827,0.807609 -0.252452,0.918471 -0.740202,1.502253 -0.649708,0.777627 -1.08839,1.42134 -1.502645,2.204953 l -0.318081,0.601687 z"
     id="path46" />
  <path
     style="fill:#000000;stroke:#000000;stroke-width:0.0795495;stroke-linecap:round;stroke-dasharray:none;stroke-opacity:1"
     d="m 31.731417,29.076822 c -1.818761,-0.878267 -4.738597,-1.580294 -7.159456,-1.721374 -0.486136,-0.02833 -1.042983,-0.07047 -1.237437,-0.09364 l -0.353554,-0.04213 0.0442,-1.964674 0.04419,-1.964675 0.375672,-0.785681 c 1.648625,-3.447928 4.942128,-5.843042 8.30302,-6.038154 2.476475,-0.143769 4.506829,0.813717 6.005578,2.832144 0.732908,0.987038 1.029334,2.608342 0.701826,3.838632 -0.420654,1.580191 -1.683645,3.242457 -3.586252,4.719993 -0.715007,0.555265 -2.277918,1.584519 -2.381803,1.568536 -0.02688,-0.0041 -0.367075,-0.161176 -0.755983,-0.348978 z"
     id="path47" />
  <path
     style="fill:#000000;stroke:#000000;stroke-width:0.0795495;stroke-linecap:round;stroke-dasharray:none;stroke-opacity:1"
     d="m 31.422058,32.43121 c -0.84119,-0.372935 -2.287581,-0.828713 -3.447146,-1.086243 -4.583797,-1.018024 -10.061213,-0.658111 -13.993391,0.919485 -0.480971,0.192966 -0.890187,0.350848 -0.909367,0.350848 -0.01918,0 -0.03487,-0.532239 -0.03487,-1.182754 v -1.182753 l 0.729204,-0.310449 c 1.6222,-0.69063 3.272498,-1.151972 5.192816,-1.451658 1.456041,-0.227231 5.616448,-0.22759 7.071067,-6.11e-4 2.010293,0.313686 3.849133,0.835146 5.338636,1.513935 l 0.671772,0.306136 v 1.198271 c 0,0.659049 -0.0099,1.194274 -0.0221,1.189388 -0.01215,-0.0049 -0.280633,-0.123503 -0.596621,-0.263595 z"
     id="path48" />
  <path
     style="fill:#000000;stroke:#000000;stroke-width:0.0795495;stroke-linecap:round;stroke-dasharray:none;stroke-opacity:1"
     d="m 13.037281,34.959658 v -1.193549 l 0.596622,-0.274545 c 1.516918,-0.698034 3.91863,-1.333967 6.032504,-1.597306 1.1951,-0.148881 4.460898,-0.148952 5.656855,-1.23e-4 2.117844,0.263552 4.049897,0.763451 5.767339,1.49224 l 0.950175,0.403202 v 1.180628 c 0,0.649346 -0.01442,1.180629 -0.03204,1.180629 -0.01762,0 -0.318892,-0.118289 -0.669491,-0.262864 -2.605009,-1.07422 -5.486393,-1.593291 -8.844414,-1.593291 -2.907254,0 -5.249152,0.353136 -7.552718,1.138879 -0.683057,0.23299 -1.391077,0.490224 -1.573378,0.571633 l -0.331457,0.148015 z"
     id="path49" />
  <path
     style="fill:#000000;stroke:#000000;stroke-width:0.0795495;stroke-linecap:round;stroke-dasharray:none;stroke-opacity:1"
     d="M 20.771262,39.065764 C 19.089481,38.916773 17.198009,38.523089 15.84696,38.040839 15.02077,37.745934 13.656,37.117204 13.656,37.031495 c 0,-0.134227 1.779937,-0.765905 3.120026,-1.10726 1.912477,-0.487156 2.999889,-0.60372 5.674614,-0.608283 2.659722,-0.0045 3.527114,0.08021 5.435884,0.53111 1.397942,0.330229 3.447145,1.032139 3.447145,1.180745 0,0.12767 -1.717229,0.873373 -2.740039,1.189856 -2.384796,0.737916 -5.389227,1.063657 -7.822368,0.848101 z"
     id="path50" />
</svg>
